/* XPM */
static char * ThickenedSection_xpm[] = {
"16 16 4 1",
" 	c None",
".	c #000000",
"+	c #C000FF",
"@	c #00FF00",
"................",
".++++...........",
".+++++..........",
".@@@++..........",
"...@++..........",
"...@++..........",
"...@++...++++++.",
"...@++...++++++.",
"...@++...++@@@@.",
"...@++...++@....",
"...@++...++@....",
"...@+++++++@....",
"...@+++++++@....",
"...@@@@@@@@@....",
"................",
"................"};
